<svg width="1354" height="205" viewBox="0 0 1354 205" fill="none" xmlns="http://www.w3.org/2000/svg">
<path d="M0 49C0 26.9086 17.9086 9 40 9H1314C1336.09 9 1354 26.9086 1354 49V156C1354 178.091 1336.09 196 1314 196H40C17.9086 196 0 178.091 0 156V49Z" fill="url(#paint0_linear_0_2630)" fill-opacity="0.2"/>
<path fill-rule="evenodd" clip-rule="evenodd" d="M390 10H1314C1335.54 10 1353 27.4609 1353 49V156C1353 177.539 1335.54 195 1314 195H1264V196H1314C1336.09 196 1354 178.091 1354 156V49C1354 26.9086 1336.09 9 1314 9H390V10ZM90 10V9H40C17.9086 9 0 26.9086 0 49V156C0 178.091 17.9086 196 40 196H964V195H40C18.4609 195 1 177.539 1 156V49C1 27.4609 18.4609 10 40 10H90Z" fill="#7156FB"/>
<path d="M1014 195.5H1264M90 9.5H340" stroke="#7156FB" stroke-dasharray="2 2"/>
<!-- <rect x="984" y="61.5" width="251" height="80" rx="40" fill="#7156FB"/> -->
<!-- <path d="M1035.94 101.22C1036.74 101.473 1037.37 101.9 1037.82 102.5C1038.27 103.087 1038.5 103.813 1038.5 104.68C1038.5 105.907 1038.02 106.853 1037.06 107.52C1036.11 108.173 1034.73 108.5 1032.9 108.5H1025.66V94.5H1032.5C1034.21 94.5 1035.51 94.8267 1036.42 95.48C1037.34 96.1333 1037.8 97.02 1037.8 98.14C1037.8 98.82 1037.63 99.4267 1037.3 99.96C1036.98 100.493 1036.53 100.913 1035.94 101.22ZM1028.88 96.94V100.24H1032.1C1032.9 100.24 1033.51 100.1 1033.92 99.82C1034.33 99.54 1034.54 99.1267 1034.54 98.58C1034.54 98.0333 1034.33 97.6267 1033.92 97.36C1033.51 97.08 1032.9 96.94 1032.1 96.94H1028.88ZM1032.66 106.06C1033.51 106.06 1034.15 105.92 1034.58 105.64C1035.02 105.36 1035.24 104.927 1035.24 104.34C1035.24 103.18 1034.38 102.6 1032.66 102.6H1028.88V106.06H1032.66ZM1051.57 97.74V108.5H1048.61V107.22C1048.2 107.687 1047.71 108.047 1047.13 108.3C1046.56 108.54 1045.94 108.66 1045.27 108.66C1043.86 108.66 1042.74 108.253 1041.91 107.44C1041.09 106.627 1040.67 105.42 1040.67 103.82V97.74H1043.79V103.36C1043.79 105.093 1044.52 105.96 1045.97 105.96C1046.72 105.96 1047.32 105.72 1047.77 105.24C1048.23 104.747 1048.45 104.02 1048.45 103.06V97.74H1051.57ZM1065.14 97.74L1060.28 109.16C1059.79 110.4 1059.18 111.273 1058.44 111.78C1057.72 112.287 1056.85 112.54 1055.82 112.54C1055.26 112.54 1054.71 112.453 1054.16 112.28C1053.62 112.107 1053.17 111.867 1052.82 111.56L1053.96 109.34C1054.2 109.553 1054.48 109.72 1054.78 109.84C1055.1 109.96 1055.42 110.02 1055.72 110.02C1056.15 110.02 1056.5 109.913 1056.76 109.7C1057.03 109.5 1057.27 109.16 1057.48 108.68L1057.52 108.58L1052.86 97.74H1056.08L1059.1 105.04L1062.14 97.74H1065.14ZM1085.14 94.5V108.5H1082.48L1075.5 100V108.5H1072.3V94.5H1074.98L1081.94 103V94.5H1085.14ZM1091.69 97.1V100.8H1098.17V103.4H1091.69V108.5H1088.45V94.5H1099.03V97.1H1091.69ZM1104.22 97.14H1099.74V94.5H1111.94V97.14H1107.46V108.5H1104.22V97.14ZM1130.23 97.74V106.7C1130.23 108.673 1129.72 110.14 1128.69 111.1C1127.66 112.06 1126.16 112.54 1124.19 112.54C1123.15 112.54 1122.16 112.413 1121.23 112.16C1120.3 111.907 1119.52 111.54 1118.91 111.06L1120.15 108.82C1120.6 109.193 1121.18 109.487 1121.87 109.7C1122.56 109.927 1123.26 110.04 1123.95 110.04C1125.03 110.04 1125.82 109.793 1126.33 109.3C1126.85 108.82 1127.11 108.087 1127.11 107.1V106.64C1126.3 107.533 1125.16 107.98 1123.71 107.98C1122.72 107.98 1121.82 107.767 1120.99 107.34C1120.18 106.9 1119.53 106.287 1119.05 105.5C1118.57 104.713 1118.33 103.807 1118.33 102.78C1118.33 101.753 1118.57 100.847 1119.05 100.06C1119.53 99.2733 1120.18 98.6667 1120.99 98.24C1121.82 97.8 1122.72 97.58 1123.71 97.58C1125.27 97.58 1126.46 98.0933 1127.27 99.12V97.74H1130.23ZM1124.33 105.42C1125.16 105.42 1125.83 105.18 1126.35 104.7C1126.88 104.207 1127.15 103.567 1127.15 102.78C1127.15 101.993 1126.88 101.36 1126.35 100.88C1125.83 100.387 1125.16 100.14 1124.33 100.14C1123.5 100.14 1122.82 100.387 1122.29 100.88C1121.76 101.36 1121.49 101.993 1121.49 102.78C1121.49 103.567 1121.76 104.207 1122.29 104.7C1122.82 105.18 1123.5 105.42 1124.33 105.42ZM1133.14 93.66H1136.26V108.5H1133.14V93.66ZM1143.49 97.58C1145.16 97.58 1146.44 97.98 1147.33 98.78C1148.22 99.5667 1148.67 100.76 1148.67 102.36V108.5H1145.75V107.16C1145.16 108.16 1144.07 108.66 1142.47 108.66C1141.64 108.66 1140.92 108.52 1140.31 108.24C1139.71 107.96 1139.25 107.573 1138.93 107.08C1138.61 106.587 1138.45 106.027 1138.45 105.4C1138.45 104.4 1138.82 103.613 1139.57 103.04C1140.33 102.467 1141.5 102.18 1143.07 102.18H1145.55C1145.55 101.5 1145.34 100.98 1144.93 100.62C1144.52 100.247 1143.9 100.06 1143.07 100.06C1142.5 100.06 1141.93 100.153 1141.37 100.34C1140.82 100.513 1140.36 100.753 1139.97 101.06L1138.85 98.88C1139.44 98.4667 1140.14 98.1467 1140.95 97.92C1141.78 97.6933 1142.62 97.58 1143.49 97.58ZM1143.25 106.56C1143.78 106.56 1144.26 106.44 1144.67 106.2C1145.08 105.947 1145.38 105.58 1145.55 105.1V104H1143.41C1142.13 104 1141.49 104.42 1141.49 105.26C1141.49 105.66 1141.64 105.98 1141.95 106.22C1142.27 106.447 1142.7 106.56 1143.25 106.56ZM1155.11 108.66C1154.22 108.66 1153.35 108.553 1152.49 108.34C1151.64 108.113 1150.96 107.833 1150.45 107.5L1151.49 105.26C1151.97 105.567 1152.55 105.82 1153.23 106.02C1153.91 106.207 1154.58 106.3 1155.23 106.3C1156.55 106.3 1157.21 105.973 1157.21 105.32C1157.21 105.013 1157.03 104.793 1156.67 104.66C1156.31 104.527 1155.76 104.413 1155.01 104.32C1154.13 104.187 1153.41 104.033 1152.83 103.86C1152.26 103.687 1151.76 103.38 1151.33 102.94C1150.92 102.5 1150.71 101.873 1150.71 101.06C1150.71 100.38 1150.91 99.78 1151.29 99.26C1151.69 98.7267 1152.27 98.3133 1153.01 98.02C1153.77 97.7267 1154.67 97.58 1155.69 97.58C1156.45 97.58 1157.21 97.6667 1157.95 97.84C1158.71 98 1159.34 98.2267 1159.83 98.52L1158.79 100.74C1157.85 100.207 1156.81 99.94 1155.69 99.94C1155.03 99.94 1154.53 100.033 1154.19 100.22C1153.86 100.407 1153.69 100.647 1153.69 100.94C1153.69 101.273 1153.87 101.507 1154.23 101.64C1154.59 101.773 1155.17 101.9 1155.95 102.02C1156.83 102.167 1157.55 102.327 1158.11 102.5C1158.67 102.66 1159.16 102.96 1159.57 103.4C1159.99 103.84 1160.19 104.453 1160.19 105.24C1160.19 105.907 1159.99 106.5 1159.59 107.02C1159.19 107.54 1158.61 107.947 1157.83 108.24C1157.07 108.52 1156.17 108.66 1155.11 108.66ZM1165.74 108.66C1164.85 108.66 1163.97 108.553 1163.12 108.34C1162.27 108.113 1161.59 107.833 1161.08 107.5L1162.12 105.26C1162.6 105.567 1163.18 105.82 1163.86 106.02C1164.54 106.207 1165.21 106.3 1165.86 106.3C1167.18 106.3 1167.84 105.973 1167.84 105.32C1167.84 105.013 1167.66 104.793 1167.3 104.66C1166.94 104.527 1166.39 104.413 1165.64 104.32C1164.76 104.187 1164.03 104.033 1163.46 103.86C1162.89 103.687 1162.39 103.38 1161.96 102.94C1161.55 102.5 1161.34 101.873 1161.34 101.06C1161.34 100.38 1161.53 99.78 1161.92 99.26C1162.32 98.7267 1162.89 98.3133 1163.64 98.02C1164.4 97.7267 1165.29 97.58 1166.32 97.58C1167.08 97.58 1167.83 97.6667 1168.58 97.84C1169.34 98 1169.97 98.2267 1170.46 98.52L1169.42 100.74C1168.47 100.207 1167.44 99.94 1166.32 99.94C1165.65 99.94 1165.15 100.033 1164.82 100.22C1164.49 100.407 1164.32 100.647 1164.32 100.94C1164.32 101.273 1164.5 101.507 1164.86 101.64C1165.22 101.773 1165.79 101.9 1166.58 102.02C1167.46 102.167 1168.18 102.327 1168.74 102.5C1169.3 102.66 1169.79 102.96 1170.2 103.4C1170.61 103.84 1170.82 104.453 1170.82 105.24C1170.82 105.907 1170.62 106.5 1170.22 107.02C1169.82 107.54 1169.23 107.947 1168.46 108.24C1167.7 108.52 1166.79 108.66 1165.74 108.66ZM1183.28 103.16C1183.28 103.2 1183.26 103.48 1183.22 104H1175.08C1175.23 104.667 1175.58 105.193 1176.12 105.58C1176.67 105.967 1177.35 106.16 1178.16 106.16C1178.72 106.16 1179.22 106.08 1179.64 105.92C1180.08 105.747 1180.49 105.48 1180.86 105.12L1182.52 106.92C1181.51 108.08 1180.03 108.66 1178.08 108.66C1176.87 108.66 1175.8 108.427 1174.86 107.96C1173.93 107.48 1173.21 106.82 1172.7 105.98C1172.2 105.14 1171.94 104.187 1171.94 103.12C1171.94 102.067 1172.19 101.12 1172.68 100.28C1173.19 99.4267 1173.88 98.7667 1174.74 98.3C1175.62 97.82 1176.6 97.58 1177.68 97.58C1178.74 97.58 1179.69 97.8067 1180.54 98.26C1181.4 98.7133 1182.06 99.3667 1182.54 100.22C1183.04 101.06 1183.28 102.04 1183.28 103.16ZM1177.7 99.94C1177 99.94 1176.4 100.14 1175.92 100.54C1175.44 100.94 1175.15 101.487 1175.04 102.18H1180.34C1180.24 101.5 1179.94 100.96 1179.46 100.56C1178.98 100.147 1178.4 99.94 1177.7 99.94ZM1188.98 108.66C1188.09 108.66 1187.22 108.553 1186.36 108.34C1185.51 108.113 1184.83 107.833 1184.32 107.5L1185.36 105.26C1185.84 105.567 1186.42 105.82 1187.1 106.02C1187.78 106.207 1188.45 106.3 1189.1 106.3C1190.42 106.3 1191.08 105.973 1191.08 105.32C1191.08 105.013 1190.9 104.793 1190.54 104.66C1190.18 104.527 1189.63 104.413 1188.88 104.32C1188 104.187 1187.28 104.033 1186.7 103.86C1186.13 103.687 1185.63 103.38 1185.2 102.94C1184.79 102.5 1184.58 101.873 1184.58 101.06C1184.58 100.38 1184.78 99.78 1185.16 99.26C1185.56 98.7267 1186.14 98.3133 1186.88 98.02C1187.64 97.7267 1188.54 97.58 1189.56 97.58C1190.32 97.58 1191.08 97.6667 1191.82 97.84C1192.58 98 1193.21 98.2267 1193.7 98.52L1192.66 100.74C1191.72 100.207 1190.68 99.94 1189.56 99.94C1188.9 99.94 1188.4 100.033 1188.06 100.22C1187.73 100.407 1187.56 100.647 1187.56 100.94C1187.56 101.273 1187.74 101.507 1188.1 101.64C1188.46 101.773 1189.04 101.9 1189.82 102.02C1190.7 102.167 1191.42 102.327 1191.98 102.5C1192.54 102.66 1193.03 102.96 1193.44 103.4C1193.86 103.84 1194.06 104.453 1194.06 105.24C1194.06 105.907 1193.86 106.5 1193.46 107.02C1193.06 107.54 1192.48 107.947 1191.7 108.24C1190.94 108.52 1190.04 108.66 1188.98 108.66Z" fill="#FCFCFD"/> -->
<!-- <path d="M119.158 110V91.8H127.426C129.402 91.8 131.144 92.1813 132.652 92.944C134.16 93.6893 135.339 94.738 136.188 96.09C137.037 97.442 137.462 99.0453 137.462 100.9C137.462 102.737 137.037 104.341 136.188 105.71C135.339 107.062 134.16 108.119 132.652 108.882C131.144 109.627 129.402 110 127.426 110H119.158ZM123.37 106.542H127.218C128.431 106.542 129.48 106.317 130.364 105.866C131.265 105.398 131.959 104.739 132.444 103.89C132.947 103.041 133.198 102.044 133.198 100.9C133.198 99.7387 132.947 98.742 132.444 97.91C131.959 97.0607 131.265 96.4107 130.364 95.96C129.48 95.492 128.431 95.258 127.218 95.258H123.37V106.542ZM147.008 110.208C145.518 110.208 144.192 109.896 143.03 109.272C141.886 108.648 140.976 107.799 140.3 106.724C139.642 105.632 139.312 104.393 139.312 103.006C139.312 101.602 139.642 100.363 140.3 99.288C140.976 98.196 141.886 97.3467 143.03 96.74C144.192 96.116 145.518 95.804 147.008 95.804C148.482 95.804 149.799 96.116 150.96 96.74C152.122 97.3467 153.032 98.1873 153.69 99.262C154.349 100.337 154.678 101.585 154.678 103.006C154.678 104.393 154.349 105.632 153.69 106.724C153.032 107.799 152.122 108.648 150.96 109.272C149.799 109.896 148.482 110.208 147.008 110.208ZM147.008 106.88C147.684 106.88 148.291 106.724 148.828 106.412C149.366 106.1 149.79 105.658 150.102 105.086C150.414 104.497 150.57 103.803 150.57 103.006C150.57 102.191 150.414 101.498 150.102 100.926C149.79 100.354 149.366 99.912 148.828 99.6C148.291 99.288 147.684 99.132 147.008 99.132C146.332 99.132 145.726 99.288 145.188 99.6C144.651 99.912 144.218 100.354 143.888 100.926C143.576 101.498 143.42 102.191 143.42 103.006C143.42 103.803 143.576 104.497 143.888 105.086C144.218 105.658 144.651 106.1 145.188 106.412C145.726 106.724 146.332 106.88 147.008 106.88ZM165.892 95.804C167.001 95.804 167.989 96.0293 168.856 96.48C169.74 96.9133 170.433 97.5893 170.936 98.508C171.438 99.4093 171.69 100.571 171.69 101.992V110H167.634V102.616C167.634 101.489 167.382 100.657 166.88 100.12C166.394 99.5827 165.701 99.314 164.8 99.314C164.158 99.314 163.578 99.4527 163.058 99.73C162.555 99.99 162.156 100.397 161.862 100.952C161.584 101.507 161.446 102.217 161.446 103.084V110H157.39V96.012H161.264V99.886L160.536 98.716C161.038 97.78 161.758 97.0607 162.694 96.558C163.63 96.0553 164.696 95.804 165.892 95.804ZM174.588 99.34L176.304 93.1L176.876 95.466C176.131 95.466 175.515 95.2493 175.03 94.816C174.562 94.3653 174.328 93.7587 174.328 92.996C174.328 92.2507 174.571 91.6527 175.056 91.202C175.541 90.734 176.139 90.5 176.85 90.5C177.578 90.5 178.176 90.734 178.644 91.202C179.112 91.6527 179.346 92.2507 179.346 92.996C179.346 93.2213 179.329 93.4467 179.294 93.672C179.277 93.88 179.216 94.1313 179.112 94.426C179.025 94.7207 178.878 95.1107 178.67 95.596L177.162 99.34H174.588ZM187.916 110.208C186.27 110.208 184.987 109.792 184.068 108.96C183.15 108.111 182.69 106.854 182.69 105.19V92.918H186.746V105.138C186.746 105.727 186.902 106.187 187.214 106.516C187.526 106.828 187.951 106.984 188.488 106.984C189.13 106.984 189.676 106.811 190.126 106.464L191.218 109.324C190.802 109.619 190.3 109.844 189.71 110C189.138 110.139 188.54 110.208 187.916 110.208ZM180.532 99.444V96.324H190.23V99.444H180.532ZM218.772 95.804C219.882 95.804 220.861 96.0293 221.71 96.48C222.577 96.9133 223.253 97.5893 223.738 98.508C224.241 99.4093 224.492 100.571 224.492 101.992V110H220.436V102.616C220.436 101.489 220.202 100.657 219.734 100.12C219.266 99.5827 218.608 99.314 217.758 99.314C217.169 99.314 216.64 99.4527 216.172 99.73C215.704 99.99 215.34 100.389 215.08 100.926C214.82 101.463 214.69 102.148 214.69 102.98V110H210.634V102.616C210.634 101.489 210.4 100.657 209.932 100.12C209.482 99.5827 208.832 99.314 207.982 99.314C207.393 99.314 206.864 99.4527 206.396 99.73C205.928 99.99 205.564 100.389 205.304 100.926C205.044 101.463 204.914 102.148 204.914 102.98V110H200.858V96.012H204.732V99.834L204.004 98.716C204.49 97.7627 205.174 97.0433 206.058 96.558C206.96 96.0553 207.982 95.804 209.126 95.804C210.409 95.804 211.527 96.1333 212.48 96.792C213.451 97.4333 214.092 98.4213 214.404 99.756L212.974 99.366C213.442 98.274 214.188 97.4073 215.21 96.766C216.25 96.1247 217.438 95.804 218.772 95.804ZM228.128 110V96.012H232.184V110H228.128ZM230.156 94.062C229.411 94.062 228.804 93.8453 228.336 93.412C227.868 92.9787 227.634 92.4413 227.634 91.8C227.634 91.1587 227.868 90.6213 228.336 90.188C228.804 89.7547 229.411 89.538 230.156 89.538C230.901 89.538 231.508 89.746 231.976 90.162C232.444 90.5607 232.678 91.0807 232.678 91.722C232.678 92.398 232.444 92.9613 231.976 93.412C231.525 93.8453 230.919 94.062 230.156 94.062ZM240.654 110.208C239.458 110.208 238.306 110.069 237.196 109.792C236.104 109.497 235.238 109.133 234.596 108.7L235.948 105.788C236.59 106.187 237.344 106.516 238.21 106.776C239.094 107.019 239.961 107.14 240.81 107.14C241.746 107.14 242.405 107.027 242.786 106.802C243.185 106.577 243.384 106.265 243.384 105.866C243.384 105.537 243.228 105.294 242.916 105.138C242.622 104.965 242.223 104.835 241.72 104.748C241.218 104.661 240.663 104.575 240.056 104.488C239.467 104.401 238.869 104.289 238.262 104.15C237.656 103.994 237.101 103.769 236.598 103.474C236.096 103.179 235.688 102.781 235.376 102.278C235.082 101.775 234.934 101.125 234.934 100.328C234.934 99.444 235.186 98.664 235.688 97.988C236.208 97.312 236.954 96.7833 237.924 96.402C238.895 96.0033 240.056 95.804 241.408 95.804C242.362 95.804 243.332 95.908 244.32 96.116C245.308 96.324 246.132 96.6273 246.79 97.026L245.438 99.912C244.762 99.5133 244.078 99.2447 243.384 99.106C242.708 98.95 242.05 98.872 241.408 98.872C240.507 98.872 239.848 98.9933 239.432 99.236C239.016 99.4787 238.808 99.7907 238.808 100.172C238.808 100.519 238.956 100.779 239.25 100.952C239.562 101.125 239.97 101.264 240.472 101.368C240.975 101.472 241.521 101.567 242.11 101.654C242.717 101.723 243.324 101.836 243.93 101.992C244.537 102.148 245.083 102.373 245.568 102.668C246.071 102.945 246.478 103.335 246.79 103.838C247.102 104.323 247.258 104.965 247.258 105.762C247.258 106.629 246.998 107.4 246.478 108.076C245.958 108.735 245.204 109.255 244.216 109.636C243.246 110.017 242.058 110.208 240.654 110.208ZM254.467 110.208C253.271 110.208 252.118 110.069 251.009 109.792C249.917 109.497 249.05 109.133 248.409 108.7L249.761 105.788C250.402 106.187 251.156 106.516 252.023 106.776C252.907 107.019 253.773 107.14 254.623 107.14C255.559 107.14 256.217 107.027 256.599 106.802C256.997 106.577 257.197 106.265 257.197 105.866C257.197 105.537 257.041 105.294 256.729 105.138C256.434 104.965 256.035 104.835 255.533 104.748C255.03 104.661 254.475 104.575 253.869 104.488C253.279 104.401 252.681 104.289 252.075 104.15C251.468 103.994 250.913 103.769 250.411 103.474C249.908 103.179 249.501 102.781 249.189 102.278C248.894 101.775 248.747 101.125 248.747 100.328C248.747 99.444 248.998 98.664 249.501 97.988C250.021 97.312 250.766 96.7833 251.737 96.402C252.707 96.0033 253.869 95.804 255.221 95.804C256.174 95.804 257.145 95.908 258.133 96.116C259.121 96.324 259.944 96.6273 260.603 97.026L259.251 99.912C258.575 99.5133 257.89 99.2447 257.197 99.106C256.521 98.95 255.862 98.872 255.221 98.872C254.319 98.872 253.661 98.9933 253.245 99.236C252.829 99.4787 252.621 99.7907 252.621 100.172C252.621 100.519 252.768 100.779 253.063 100.952C253.375 101.125 253.782 101.264 254.285 101.368C254.787 101.472 255.333 101.567 255.923 101.654C256.529 101.723 257.136 101.836 257.743 101.992C258.349 102.148 258.895 102.373 259.381 102.668C259.883 102.945 260.291 103.335 260.603 103.838C260.915 104.323 261.071 104.965 261.071 105.762C261.071 106.629 260.811 107.4 260.291 108.076C259.771 108.735 259.017 109.255 258.029 109.636C257.058 110.017 255.871 110.208 254.467 110.208ZM276.656 110.208C275.01 110.208 273.727 109.792 272.808 108.96C271.89 108.111 271.43 106.854 271.43 105.19V92.918H275.486V105.138C275.486 105.727 275.642 106.187 275.954 106.516C276.266 106.828 276.691 106.984 277.228 106.984C277.87 106.984 278.416 106.811 278.866 106.464L279.958 109.324C279.542 109.619 279.04 109.844 278.45 110C277.878 110.139 277.28 110.208 276.656 110.208ZM269.272 99.444V96.324H278.97V99.444H269.272ZM290.737 95.804C291.847 95.804 292.835 96.0293 293.701 96.48C294.585 96.9133 295.279 97.5893 295.781 98.508C296.284 99.4093 296.535 100.571 296.535 101.992V110H292.479V102.616C292.479 101.489 292.228 100.657 291.725 100.12C291.24 99.5827 290.547 99.314 289.645 99.314C289.004 99.314 288.423 99.4527 287.903 99.73C287.401 99.99 287.002 100.397 286.707 100.952C286.43 101.507 286.291 102.217 286.291 103.084V110H282.235V90.708H286.291V99.886L285.381 98.716C285.884 97.78 286.603 97.0607 287.539 96.558C288.475 96.0553 289.541 95.804 290.737 95.804ZM307.255 110.208C305.661 110.208 304.257 109.896 303.043 109.272C301.847 108.648 300.92 107.799 300.261 106.724C299.603 105.632 299.273 104.393 299.273 103.006C299.273 101.602 299.594 100.363 300.235 99.288C300.894 98.196 301.787 97.3467 302.913 96.74C304.04 96.116 305.314 95.804 306.735 95.804C308.105 95.804 309.335 96.0987 310.427 96.688C311.537 97.26 312.412 98.092 313.053 99.184C313.695 100.259 314.015 101.55 314.015 103.058C314.015 103.214 314.007 103.396 313.989 103.604C313.972 103.795 313.955 103.977 313.937 104.15H302.575V101.784H311.805L310.245 102.486C310.245 101.758 310.098 101.125 309.803 100.588C309.509 100.051 309.101 99.6347 308.581 99.34C308.061 99.028 307.455 98.872 306.761 98.872C306.068 98.872 305.453 99.028 304.915 99.34C304.395 99.6347 303.988 100.059 303.693 100.614C303.399 101.151 303.251 101.793 303.251 102.538V103.162C303.251 103.925 303.416 104.601 303.745 105.19C304.092 105.762 304.569 106.204 305.175 106.516C305.799 106.811 306.527 106.958 307.359 106.958C308.105 106.958 308.755 106.845 309.309 106.62C309.881 106.395 310.401 106.057 310.869 105.606L313.027 107.946C312.386 108.674 311.58 109.237 310.609 109.636C309.639 110.017 308.521 110.208 307.255 110.208Z" fill="#FCFCFD"/> -->
<!-- <path d="M324.365 110V91.8H332.243C333.872 91.8 335.276 92.0687 336.455 92.606C337.634 93.126 338.544 93.88 339.185 94.868C339.826 95.856 340.147 97.0347 340.147 98.404C340.147 99.756 339.826 100.926 339.185 101.914C338.544 102.902 337.634 103.665 336.455 104.202C335.276 104.722 333.872 104.982 332.243 104.982H326.705L328.577 103.084V110H324.365ZM328.577 103.552L326.705 101.55H332.009C333.309 101.55 334.28 101.273 334.921 100.718C335.562 100.163 335.883 99.392 335.883 98.404C335.883 97.3987 335.562 96.6187 334.921 96.064C334.28 95.5093 333.309 95.232 332.009 95.232H326.705L328.577 93.23V103.552ZM342.843 110V96.012H346.717V99.964L346.171 98.82C346.587 97.832 347.254 97.0867 348.173 96.584C349.091 96.064 350.209 95.804 351.527 95.804V99.548C351.353 99.5307 351.197 99.522 351.059 99.522C350.92 99.5047 350.773 99.496 350.617 99.496C349.507 99.496 348.606 99.8167 347.913 100.458C347.237 101.082 346.899 102.061 346.899 103.396V110H342.843ZM360.779 110.208C359.184 110.208 357.78 109.896 356.567 109.272C355.371 108.648 354.444 107.799 353.785 106.724C353.126 105.632 352.797 104.393 352.797 103.006C352.797 101.602 353.118 100.363 353.759 99.288C354.418 98.196 355.31 97.3467 356.437 96.74C357.564 96.116 358.838 95.804 360.259 95.804C361.628 95.804 362.859 96.0987 363.951 96.688C365.06 97.26 365.936 98.092 366.577 99.184C367.218 100.259 367.539 101.55 367.539 103.058C367.539 103.214 367.53 103.396 367.513 103.604C367.496 103.795 367.478 103.977 367.461 104.15H356.099V101.784H365.329L363.769 102.486C363.769 101.758 363.622 101.125 363.327 100.588C363.032 100.051 362.625 99.6347 362.105 99.34C361.585 99.028 360.978 98.872 360.285 98.872C359.592 98.872 358.976 99.028 358.439 99.34C357.919 99.6347 357.512 100.059 357.217 100.614C356.922 101.151 356.775 101.793 356.775 102.538V103.162C356.775 103.925 356.94 104.601 357.269 105.19C357.616 105.762 358.092 106.204 358.699 106.516C359.323 106.811 360.051 106.958 360.883 106.958C361.628 106.958 362.278 106.845 362.833 106.62C363.405 106.395 363.925 106.057 364.393 105.606L366.551 107.946C365.91 108.674 365.104 109.237 364.133 109.636C363.162 110.017 362.044 110.208 360.779 110.208ZM374.945 110.208C373.749 110.208 372.597 110.069 371.487 109.792C370.395 109.497 369.529 109.133 368.887 108.7L370.239 105.788C370.881 106.187 371.635 106.516 372.501 106.776C373.385 107.019 374.252 107.14 375.101 107.14C376.037 107.14 376.696 107.027 377.077 106.802C377.476 106.577 377.675 106.265 377.675 105.866C377.675 105.537 377.519 105.294 377.207 105.138C376.913 104.965 376.514 104.835 376.011 104.748C375.509 104.661 374.954 104.575 374.347 104.488C373.758 104.401 373.16 104.289 372.553 104.15C371.947 103.994 371.392 103.769 370.889 103.474C370.387 103.179 369.979 102.781 369.667 102.278C369.373 101.775 369.225 101.125 369.225 100.328C369.225 99.444 369.477 98.664 369.979 97.988C370.499 97.312 371.245 96.7833 372.215 96.402C373.186 96.0033 374.347 95.804 375.699 95.804C376.653 95.804 377.623 95.908 378.611 96.116C379.599 96.324 380.423 96.6273 381.081 97.026L379.729 99.912C379.053 99.5133 378.369 99.2447 377.675 99.106C376.999 98.95 376.341 98.872 375.699 98.872C374.798 98.872 374.139 98.9933 373.723 99.236C373.307 99.4787 373.099 99.7907 373.099 100.172C373.099 100.519 373.247 100.779 373.541 100.952C373.853 101.125 374.261 101.264 374.763 101.368C375.266 101.472 375.812 101.567 376.401 101.654C377.008 101.723 377.615 101.836 378.221 101.992C378.828 102.148 379.374 102.373 379.859 102.668C380.362 102.945 380.769 103.335 381.081 103.838C381.393 104.323 381.549 104.965 381.549 105.762C381.549 106.629 381.289 107.4 380.769 108.076C380.249 108.735 379.495 109.255 378.507 109.636C377.537 110.017 376.349 110.208 374.945 110.208ZM392.632 110V107.27L392.372 106.672V101.784C392.372 100.917 392.103 100.241 391.566 99.756C391.046 99.2707 390.24 99.028 389.148 99.028C388.402 99.028 387.666 99.1493 386.938 99.392C386.227 99.6173 385.62 99.9293 385.118 100.328L383.662 97.494C384.424 96.9567 385.343 96.5407 386.418 96.246C387.492 95.9513 388.584 95.804 389.694 95.804C391.826 95.804 393.481 96.3067 394.66 97.312C395.838 98.3173 396.428 99.886 396.428 102.018V110H392.632ZM388.368 110.208C387.276 110.208 386.34 110.026 385.56 109.662C384.78 109.281 384.182 108.769 383.766 108.128C383.35 107.487 383.142 106.767 383.142 105.97C383.142 105.138 383.341 104.41 383.74 103.786C384.156 103.162 384.806 102.677 385.69 102.33C386.574 101.966 387.726 101.784 389.148 101.784H392.866V104.15H389.59C388.636 104.15 387.978 104.306 387.614 104.618C387.267 104.93 387.094 105.32 387.094 105.788C387.094 106.308 387.293 106.724 387.692 107.036C388.108 107.331 388.671 107.478 389.382 107.478C390.058 107.478 390.664 107.322 391.202 107.01C391.739 106.681 392.129 106.204 392.372 105.58L392.996 107.452C392.701 108.353 392.164 109.038 391.384 109.506C390.604 109.974 389.598 110.208 388.368 110.208ZM400.099 110V90.708H404.155V110H400.099ZM414.861 110.208C413.266 110.208 411.862 109.896 410.649 109.272C409.453 108.648 408.526 107.799 407.867 106.724C407.208 105.632 406.879 104.393 406.879 103.006C406.879 101.602 407.2 100.363 407.841 99.288C408.5 98.196 409.392 97.3467 410.519 96.74C411.646 96.116 412.92 95.804 414.341 95.804C415.71 95.804 416.941 96.0987 418.033 96.688C419.142 97.26 420.018 98.092 420.659 99.184C421.3 100.259 421.621 101.55 421.621 103.058C421.621 103.214 421.612 103.396 421.595 103.604C421.578 103.795 421.56 103.977 421.543 104.15H410.181V101.784H419.411L417.851 102.486C417.851 101.758 417.704 101.125 417.409 100.588C417.114 100.051 416.707 99.6347 416.187 99.34C415.667 99.028 415.06 98.872 414.367 98.872C413.674 98.872 413.058 99.028 412.521 99.34C412.001 99.6347 411.594 100.059 411.299 100.614C411.004 101.151 410.857 101.793 410.857 102.538V103.162C410.857 103.925 411.022 104.601 411.351 105.19C411.698 105.762 412.174 106.204 412.781 106.516C413.405 106.811 414.133 106.958 414.965 106.958C415.71 106.958 416.36 106.845 416.915 106.62C417.487 106.395 418.007 106.057 418.475 105.606L420.633 107.946C419.992 108.674 419.186 109.237 418.215 109.636C417.244 110.017 416.126 110.208 414.861 110.208Z" fill="#01FFC2"/> -->
<path d="M976.479 205L970 205L975.514 195.996L970 187L976.479 187L982 195.996L976.479 205Z" fill="#7156FB"/>
<path d="M988.486 205L982 205L987.521 195.996L982 187L988.486 187L994 195.996L988.486 205Z" fill="#7156FB" fill-opacity="0.7"/>
<path d="M1000.49 205L994 205L999.514 195.996L994 187L1000.49 187L1006 195.996L1000.49 205Z" fill="#7156FB" fill-opacity="0.3"/>
<path d="M375.521 9.80426e-07L382 1.90735e-06L376.486 9.00407L382 18L375.521 18L370 9.00407L375.521 9.80426e-07Z" fill="#7156FB"/>
<path d="M363.514 9.79424e-07L370 1.90735e-06L364.479 9.00407L370 18L363.514 18L358 9.00407L363.514 9.79424e-07Z" fill="#7156FB" fill-opacity="0.7"/>
<path d="M351.514 9.79424e-07L358 1.90735e-06L352.486 9.00407L358 18L351.514 18L346 9.00407L351.514 9.79424e-07Z" fill="#7156FB" fill-opacity="0.3"/>
<defs>
<linearGradient id="paint0_linear_0_2630" x1="677" y1="9" x2="677" y2="196" gradientUnits="userSpaceOnUse">
<stop stop-color="#7156FB"/>
<stop offset="1" stop-color="#FF0DFF"/>
</linearGradient>
</defs>
</svg>
