<!-- <svg width="1354" height="187" viewBox="0 0 1354 187" fill="url(#pattern)" xmlns="http://www.w3.org/2000/svg">
<path id="paint0_linear_0_2631" fill-rule="evenodd" clip-rule="evenodd" d="M390 1H1314C1335.54 1 1353 18.4609 1353 40V147C1353 168.539 1335.54 186 1314 186H1264V187H1314C1336.09 187 1354 169.091 1354 147V40C1354 17.9086 1336.09 0 1314 0H390V1ZM90 1V0H40C17.9086 0 0 17.9086 0 40V147C0 169.091 17.9086 187 40 187H964V186H40C18.4609 186 1 168.539 1 147V40C1 18.4609 18.4609 1 40 1H90Z" fill="#7156FB"/>
</svg> -->
<svg xmlns="http://www.w3.org/2000/svg" width="1354" height="187" viewBox="0 0 1354 187" fill="none">
  <style>
    :root {
      stroke-width: 1px;
      stroke: #7156FB;
    }
  </style>
  <path d="M0 40C0 17.9086 17.9086 0 40 0H1314C1336.09 0 1354 17.9086 1354 40V147C1354 169.091 1336.09 187 1314 187H40C17.9086 187 0 169.091 0 147V40Z" fill="url(#paint0_linear_0_2631)" fill-opacity="0.2"/>
  <defs>
  <linearGradient id="paint0_linear_0_2631" x1="677" y1="0" x2="677" y2="187" gradientUnits="userSpaceOnUse">
  <stop stop-color="#7156FB"/>
  <stop offset="1" stop-color="#FF0DFF"/>
  </linearGradient>
  </defs>
  <path fill-rule="evenodd" clip-rule="evenodd" d="M390 1H1314C1335.54 1 1353 18.4609 1353 40V147C1353 168.539 1335.54 186 1314 186H1264V187H1314C1336.09 187 1354 169.091 1354 147V40C1354 17.9086 1336.09 0 1314 0H390V1ZM90 1V0H40C17.9086 0 0 17.9086 0 40V147C0 169.091 17.9086 187 40 187H964V186H40C18.4609 186 1 168.539 1 147V40C1 18.4609 18.4609 1 40 1H90Z" fill="#7156FB"/>
</svg>
